<?xml version="1.0" encoding="utf-8"?>
<!-- Generator: Adobe Illustrator 24.2.3, SVG Export Plug-In . SVG Version: 6.00 Build 0)  -->
<svg version="1.1" id="Capa_1" xmlns="http://www.w3.org/2000/svg" xmlns:xlink="http://www.w3.org/1999/xlink" x="0px" y="0px"
	 viewBox="0 0 57 70" style="enable-background:new 0 0 57 70;" xml:space="preserve">
<style type="text/css">
	.st0{fill:#FFFFFF;}
	.st1{fill:none;stroke:#FFFFFF;stroke-width:0.7788;stroke-miterlimit:10;}
</style>
<g>
	<g>
		<path class="st0" d="M45.37,59.23c2.82-2.74,5.64-5.48,8.46-8.22c0.27-0.26,0.52-0.54,0.82-0.85c-0.45-0.68-0.88-1.41-1.39-2.07
			c-1.59-2.06-3.21-4.11-4.84-6.15c-1.79-2.24-4.14-3.33-7-3.48c-2.64-0.13-5.28-0.29-7.91-0.6c-2.77-0.33-5.52-0.85-8.28-1.27
			c-1.22-0.19-2.45-0.37-3.68-0.46c-1.75-0.13-2.58,0.92-2.17,2.66c0.41,1.72,1.56,2.87,3.09,3.56c1.35,0.61,2.81,0.97,4.22,1.42
			c0.96,0.31,1.93,0.59,2.9,0.88c0,0.05,0,0.11-0.01,0.16c-1.06,0.15-2.11,0.32-3.17,0.43c-2.49,0.25-5,0.33-7.4-0.49
			c-1.52-0.52-2.96-1.33-4.41-2.05c-1.7-0.85-3.35-1.79-5.06-2.6c-1.2-0.57-2.48-0.93-3.84-0.62c-0.73,0.16-1.39,0.44-1.84,1.08
			c-0.54,0.75-0.52,1.53,0.19,2.13c1.48,1.27,2.94,2.56,4.52,3.7c3.31,2.4,6.83,4.47,10.69,5.89c1.38,0.51,2.81,0.78,4.27,0.83
			c4.17,0.16,8.33,0.32,12.5,0.42c1.08,0.03,2.07,0.24,3.01,0.78c2.3,1.32,4.29,3.01,6.2,4.84c0.02,0.02,0.02,0.06,0.03,0.09
			C45.3,59.23,45.33,59.23,45.37,59.23z"/>
		<path class="st0" d="M45.76,31.59c0,0.17,0.01,0.34-0.01,0.51c-0.07,0.66-0.6,1.01-1.24,0.8c-0.35-0.12-0.7-0.27-1.04-0.4
			c-4.33-1.69-8.67-1.74-12.98,0.02c-1.01,0.41-1.85,0.4-2.85-0.01c-3.83-1.57-7.74-1.69-11.69-0.45c-0.77,0.24-1.52,0.58-2.29,0.84
			c-0.69,0.24-1.21-0.14-1.26-0.87c-0.01-0.12,0-0.24,0-0.36c0-7.16,0-14.31,0-21.47c0-0.15-0.04-0.34,0.02-0.45
			c0.17-0.29,0.33-0.68,0.6-0.8c1.95-0.91,4-1.48,6.14-1.7c2.97-0.31,5.84,0.12,8.65,1.12c0.36,0.13,0.49,0.28,0.49,0.68
			c-0.02,3.34-0.01,6.68-0.01,10.02c0,0.22-0.04,0.49,0.08,0.64c0.17,0.23,0.46,0.52,0.7,0.52c0.24,0,0.54-0.26,0.71-0.49
			c0.12-0.16,0.09-0.46,0.09-0.69c0-3.34,0-6.68,0-10.02c0-0.25-0.03-0.47,0.31-0.59c1.62-0.59,3.27-1,4.98-1.18
			c3.36-0.36,6.58,0.24,9.68,1.54c0.66,0.27,0.92,0.69,0.92,1.4c-0.02,3.6-0.01,7.19-0.01,10.79C45.76,24.5,45.76,28.04,45.76,31.59
			z"/>
	</g>
	<path class="st1" d="M16.95,29.93c3.75-0.86,7.44-0.63,11.03,0.77c0.73,0.28,1.36,0.34,2.12,0.04c4.3-1.69,8.66-1.71,13.03-0.28
		c0.25,0.08,0.51,0.16,0.82,0.27c0-0.92,0.01-1.78-0.01-2.64c0-0.12-0.18-0.3-0.32-0.35c-4.62-1.72-9.22-1.66-13.77,0.26
		c-0.54,0.23-1,0.23-1.54,0c-4.55-1.92-9.15-1.98-13.77-0.25c-0.13,0.05-0.31,0.2-0.31,0.31c-0.03,0.88-0.01,1.75-0.01,2.65
		C15.16,30.42,16.05,30.14,16.95,29.93z"/>
</g>
</svg>
